<?xml version="1.0" standalone="no"?>
<!DOCTYPE svg PUBLIC "-//W3C//DTD SVG 20010904//EN"
 "http://www.w3.org/TR/2001/REC-SVG-20010904/DTD/svg10.dtd">
<svg version="1.0" xmlns="http://www.w3.org/2000/svg"
 width="1024.000000pt" height="1024.000000pt" viewBox="0 0 1024.000000 1024.000000"
 preserveAspectRatio="xMidYMid meet">
<metadata>
Created by potrace 1.11, written by Peter Selinger 2001-2013
</metadata>
<g transform="translate(0.000000,1024.000000) scale(0.100000,-0.100000)"
fill="#000000" stroke="none">
<path d="M4888 10235 c-2 -2 -42 -6 -89 -9 -47 -4 -96 -8 -110 -11 -13 -2 -60
-9 -104 -15 -106 -15 -122 -18 -143 -24 -9 -3 -33 -8 -52 -10 -19 -3 -71 -15
-115 -26 -44 -11 -89 -22 -100 -24 -11 -2 -58 -16 -105 -31 -47 -14 -89 -28
-95 -29 -10 -3 -12 -4 -112 -42 -34 -13 -63 -24 -66 -24 -2 0 -26 -10 -53 -22
-27 -12 -51 -23 -54 -23 -3 -1 -35 -16 -72 -33 -36 -18 -71 -32 -76 -32 -6 0
-12 -3 -14 -7 -1 -5 -25 -19 -53 -33 -27 -13 -92 -49 -143 -80 -51 -30 -102
-59 -113 -65 -10 -5 -19 -13 -19 -17 0 -5 -5 -8 -11 -8 -5 0 -30 -15 -54 -32
-24 -18 -70 -51 -101 -73 -32 -22 -68 -49 -80 -60 -13 -11 -40 -33 -61 -50
-115 -92 -311 -280 -395 -379 -18 -22 -44 -51 -58 -66 -14 -14 -59 -71 -100
-125 -41 -55 -78 -101 -82 -103 -5 -2 -8 -8 -8 -14 0 -6 -13 -27 -30 -48 -16
-21 -30 -42 -30 -48 0 -6 -3 -12 -8 -14 -11 -4 -102 -154 -102 -167 0 -6 -3
-11 -7 -11 -5 0 -13 -10 -19 -23 -6 -12 -34 -67 -63 -122 -55 -106 -150 -323
-171 -390 -7 -22 -18 -53 -26 -70 -13 -29 -88 -284 -98 -335 -3 -14 -8 -36
-11 -50 -3 -14 -8 -36 -11 -50 -2 -14 -9 -48 -15 -76 -13 -69 -17 -91 -24
-149 -4 -27 -9 -63 -11 -80 -19 -148 -26 -575 -11 -715 3 -36 9 -90 12 -120 3
-30 8 -66 11 -80 3 -14 6 -32 6 -40 2 -41 62 -321 89 -415 22 -76 75 -238 89
-270 4 -11 18 -47 31 -80 30 -79 137 -313 149 -325 5 -5 56 -99 74 -137 6 -13
14 -23 19 -23 4 0 7 -5 7 -11 0 -21 210 -327 264 -385 6 -6 18 -21 26 -33 8
-12 30 -39 49 -59 18 -20 61 -71 95 -112 33 -41 64 -76 68 -78 5 -2 8 -10 8
-17 0 -7 4 -15 8 -17 5 -2 28 -30 53 -63 24 -33 46 -62 49 -65 3 -3 30 -41 60
-85 30 -44 58 -82 62 -83 4 -2 8 -7 8 -12 0 -5 41 -71 90 -147 50 -76 90 -143
90 -149 0 -7 4 -14 8 -16 7 -3 45 -66 122 -203 72 -128 212 -422 258 -540 10
-27 23 -59 27 -70 5 -11 9 -22 10 -25 0 -3 16 -49 34 -102 23 -70 37 -97 49
-97 17 -1 39 -1 67 -1 8 0 22 0 30 0 8 0 22 0 30 0 8 0 22 0 30 0 8 0 22 0 30
0 8 0 22 0 30 0 8 0 22 0 30 0 8 0 22 0 30 0 8 0 22 0 30 0 8 0 22 0 30 0 8 0
22 0 30 0 8 0 22 0 30 0 8 0 22 0 30 0 8 0 22 0 30 0 8 0 22 0 30 0 8 0 22 0
30 0 8 0 22 0 30 0 8 0 22 0 30 0 8 0 22 0 30 0 8 0 22 0 30 0 8 0 22 0 30 0
8 0 22 0 30 0 8 0 22 0 30 0 8 0 22 0 30 0 8 0 22 0 30 0 8 0 22 0 30 0 8 0
22 0 30 0 8 0 22 0 30 0 8 0 22 0 30 0 8 0 22 0 30 0 8 0 22 0 30 0 8 0 22 0
30 0 8 0 22 0 30 0 8 0 22 0 30 0 8 0 22 0 30 0 8 0 22 0 30 0 8 0 22 0 30 0
8 0 22 0 30 0 8 0 22 0 30 0 8 0 22 0 30 0 8 0 22 0 30 0 8 0 22 0 30 0 8 0
22 0 30 0 8 0 22 0 30 0 8 0 22 0 30 0 8 0 22 0 30 0 8 0 22 0 30 0 8 0 22 0
30 0 8 0 21 0 28 0 6 1 38 -1 70 -2 31 -2 57 1 57 5 0 5 5 5 11 2 13 -9 175
-9 188 0 6 3 11 2 11 -4 0 -6 11 -7 28 -2 15 4 39 4 55 0 16 -4 27 -3 27 2 0
6 5 7 11 4 13 -9 175 -9 188 0 6 3 11 2 11 -4 0 -6 11 -7 28 -2 15 4 39 4 55
0 16 -4 27 -3 27 2 0 6 5 7 11 4 13 -9 175 -9 188 0 6 3 11 2 11 -4 0 -6 11
-7 28 -2 15 4 39 4 55 0 16 -4 27 -3 27 2 0 6 5 7 11 4 13 -9 175 -9 188 0 6
3 11 2 11 -4 0 -6 11 -7 28 -2 15 4 39 4 55 0 16 -4 27 -3 27 2 0 6 5 7 11 4
13 -9 175 -9 188 0 6 3 11 2 11 -3 0 -13 47 -2 61 14 6 7 12 19 13 26 3 17 25
88 36 113 4 11 13 36 20 55 7 19 19 49 26 67 8 17 14 34 14 37 0 3 13 34 29
68 15 35 38 86 51 113 30 69 164 332 190 375 40 67 176 297 180 305 21 43 240
358 252 363 4 2 8 10 8 18 0 8 5 14 10 14 6 0 10 5 10 11 0 6 9 21 20 33 10
11 48 57 82 101 61 77 81 101 141 169 15 17 60 74 100 126 40 52 75 97 78 100
11 10 159 239 170 264 7 14 16 26 21 26 5 0 7 4 3 9 -3 5 1 15 8 23 7 7 24 36
38 63 14 28 30 59 36 70 34 63 64 128 88 185 15 36 34 79 42 97 8 17 16 37 17
45 1 7 10 31 20 52 9 22 19 51 23 65 3 14 10 32 16 39 5 6 7 12 4 12 -3 0 0
15 8 33 7 17 14 35 14 40 1 4 1 8 2 10 1 3 7 26 25 97 8 36 19 72 22 80 3 8 7
20 8 25 1 6 3 12 4 15 1 3 3 14 5 25 4 20 17 85 20 95 1 5 14 85 21 125 2 11
5 38 9 60 3 22 7 54 9 70 29 197 29 618 0 858 -7 52 -11 78 -14 87 -1 3 -2 9
-1 13 1 5 -8 56 -20 115 -11 59 -22 116 -24 127 -8 51 -60 233 -102 355 -99
292 -229 557 -397 810 -65 99 -152 219 -166 230 -4 3 -11 12 -16 21 -14 25
-91 114 -174 202 -187 199 -260 263 -565 495 -25 19 -207 133 -275 172 -71 42
-274 145 -295 151 -9 2 -109 46 -160 69 -41 19 -294 100 -389 125 -101 26
-119 30 -171 40 -28 5 -43 8 -105 20 -14 3 -38 7 -55 9 -16 3 -43 7 -60 10
-35 6 -110 15 -175 22 -53 6 -557 14 -562 9z m276 -1279 c27 -4 54 -10 60 -14
6 -3 16 -7 23 -8 20 -3 76 -45 109 -81 45 -50 74 -113 78 -172 2 -29 6 -55 9
-58 4 -3 3 -11 -1 -17 -3 -6 -8 -22 -10 -36 -7 -56 -90 -180 -120 -180 -5 0
-12 -6 -15 -14 -6 -15 -119 -56 -152 -55 -38 1 -220 -10 -245 -16 -13 -2 -42
-7 -65 -10 -58 -9 -193 -45 -243 -66 -23 -10 -46 -19 -50 -20 -34 -7 -221 -97
-240 -116 -7 -7 -18 -13 -23 -13 -5 0 -15 -5 -22 -10 -7 -6 -49 -38 -95 -71
-96 -71 -228 -199 -297 -290 -27 -35 -53 -65 -57 -67 -4 -2 -8 -9 -8 -15 0 -6
-6 -18 -14 -26 -64 -73 -199 -381 -220 -504 -3 -15 -7 -35 -10 -45 -11 -37
-28 -148 -30 -208 -2 -22 -6 -45 -9 -51 -4 -7 -3 -14 2 -17 6 -4 6 -18 1 -36
-5 -18 -5 -32 1 -35 5 -4 5 -14 -1 -26 -6 -10 -8 -19 -5 -19 4 0 3 -6 -2 -12
-4 -7 -9 -20 -10 -30 -4 -28 -45 -92 -80 -123 -56 -52 -62 -56 -119 -75 -55
-19 -152 -21 -199 -5 -87 31 -155 90 -195 170 -23 46 -25 61 -24 185 0 119 6
209 18 275 2 11 7 43 12 70 10 64 11 69 14 78 1 4 3 10 4 15 22 95 69 254 93
312 3 8 7 17 8 20 17 50 114 249 147 302 18 29 40 65 47 81 8 15 18 27 23 27
4 0 8 5 8 11 0 41 311 388 441 491 19 15 48 38 64 51 41 33 173 120 215 143
19 10 37 21 40 25 31 34 384 180 520 214 40 11 209 45 240 49 95 13 152 18
228 21 46 2 86 6 89 9 3 3 9 4 12 2 3 -2 28 -7 55 -10z"/>
<path d="M3577 1924 c-3 -3 -19 -6 -35 -6 -27 -1 -29 -4 -22 -23 4 -11 4 -28
0 -36 -5 -8 -5 -21 0 -29 4 -7 4 -24 0 -36 -5 -13 -5 -26 -1 -29 5 -3 5 -20 1
-39 -4 -19 -6 -37 -3 -39 7 -7 7 -133 0 -145 -4 -6 -4 -13 1 -16 9 -5 9 -47
-1 -63 -4 -7 -4 -14 1 -17 9 -6 8 -59 -3 -75 -3 -6 -2 -11 2 -11 10 0 9 -53
-2 -69 -3 -6 -2 -11 2 -11 10 0 9 -53 -2 -69 -3 -6 -3 -11 2 -11 4 0 8 -22 7
-50 -2 -112 37 -249 97 -337 16 -23 29 -46 29 -52 0 -6 4 -11 8 -11 5 0 15
-12 23 -27 8 -16 16 -30 20 -33 12 -11 69 -102 69 -111 0 -5 3 -9 8 -9 4 0 20
-23 37 -50 16 -28 33 -50 38 -50 4 0 5 -4 2 -10 -3 -5 -1 -10 4 -10 6 0 11 -6
11 -14 0 -8 3 -16 8 -18 4 -1 33 -42 65 -90 104 -157 218 -249 372 -300 l70
-23 735 0 735 0 80 28 c44 15 97 38 117 52 20 14 41 25 45 25 23 1 176 166
206 221 20 40 211 324 220 327 4 2 7 8 7 13 0 5 21 39 46 75 44 62 101 168
110 202 18 70 32 147 28 154 -3 4 0 8 6 8 6 0 8 5 4 11 -10 17 -11 60 -2 87 4
12 4 22 0 22 -4 0 -7 11 -7 25 0 14 4 25 8 25 4 0 4 7 -1 16 -5 9 -6 31 -3 48
4 17 4 45 1 61 -4 17 -3 40 2 53 4 12 4 22 0 22 -8 0 -8 52 1 66 3 6 2 16 -3
23 -4 8 -4 27 0 42 5 16 6 29 2 29 -4 0 -7 14 -7 30 0 17 3 30 6 30 4 0 3 16
-1 35 -4 19 -4 35 0 35 5 0 5 13 0 29 -5 19 -4 33 3 40 7 7 7 11 1 11 -6 0 -8
16 -6 38 3 20 1 34 -3 30 -3 -3 -19 -3 -34 2 -16 4 -34 4 -41 0 -7 -4 -25 -4
-40 0 -15 4 -33 4 -40 0 -7 -5 -23 -5 -35 0 -12 5 -27 5 -34 0 -7 -4 -28 -4
-46 0 -18 4 -38 4 -45 0 -7 -4 -27 -4 -46 0 -19 4 -36 4 -39 0 -3 -5 -18 -5
-33 -1 -15 5 -37 5 -48 1 -11 -5 -27 -4 -34 0 -7 5 -23 5 -34 0 -12 -4 -30 -4
-41 0 -11 4 -29 4 -40 0 -11 -4 -31 -4 -45 0 -14 4 -34 3 -46 -1 -11 -4 -27
-4 -34 1 -7 5 -23 5 -34 0 -12 -4 -30 -4 -41 0 -11 4 -29 4 -40 0 -11 -4 -31
-4 -45 0 -14 4 -34 3 -46 -1 -11 -4 -27 -4 -34 1 -7 4 -23 5 -34 0 -11 -4 -33
-4 -47 0 -15 4 -32 4 -39 0 -7 -5 -23 -5 -34 0 -11 4 -33 4 -47 0 -15 -4 -32
-4 -39 0 -7 5 -23 5 -34 0 -11 -4 -33 -4 -47 0 -15 4 -32 4 -39 0 -7 -5 -23
-5 -34 0 -12 4 -30 4 -41 0 -11 -4 -29 -4 -41 0 -11 5 -26 5 -33 0 -7 -4 -28
-4 -46 0 -18 4 -38 4 -45 0 -7 -4 -27 -4 -45 0 -18 4 -39 4 -46 0 -7 -5 -22
-5 -34 0 -12 5 -28 5 -35 0 -7 -4 -25 -4 -40 0 -15 4 -33 4 -40 0 -7 -5 -23
-5 -34 0 -11 4 -33 4 -47 0 -15 -4 -32 -4 -39 0 -7 5 -23 5 -34 0 -11 -4 -33
-4 -47 0 -15 4 -32 4 -39 0 -7 -5 -23 -5 -34 0 -11 4 -33 4 -47 0 -15 -4 -32
-4 -39 0 -7 5 -23 5 -34 1 -12 -4 -32 -5 -46 -1 -14 4 -34 3 -46 -1 -11 -4
-27 -4 -34 1 -7 5 -23 5 -34 0 -12 -4 -30 -4 -41 0 -11 4 -29 4 -40 0 -11 -4
-31 -4 -45 0 -14 4 -34 3 -46 -1 -11 -4 -27 -4 -34 1 -7 5 -23 5 -34 0 -12 -4
-30 -4 -41 0 -11 4 -29 4 -40 0 -11 -4 -32 -4 -47 1 -16 4 -30 3 -34 -2 -3 -5
-10 -7 -15 -3 -13 8 -113 9 -126 1 -5 -3 -15 -2 -22 3 -8 4 -26 4 -41 0 -15
-4 -33 -4 -40 0 -7 4 -25 4 -40 0 -15 -4 -34 -4 -42 1 -8 5 -18 6 -21 3z"/>
</g>
</svg>
